<svg width="61" height="61" fill="none" xmlns="http://www.w3.org/2000/svg"><path d="M.614 56.26c.08.22.191.513.272.654.232.454 2.55 2.73 3.023 2.973.655.332 1.501.473 2.146.352 1.26-.241.746.242 12.385-11.91A5198.394 5198.394 0 0029.363 36.9c.1-.12.212-.1.766.101 1.955.736 4.555.766 6.53.08 3.103-1.077 5.4-3.597 6.257-6.851.252-.958.393-3.346.202-3.346-.07 0-1.653 1.098-3.517 2.429-1.864 1.34-3.547 2.499-3.739 2.58-.231.1-.594.14-1.068.11-1.179-.06-1.4-.242-3.113-2.63-.806-1.128-1.532-2.207-1.623-2.418-.232-.555-.191-1.441.091-2.056.292-.625.292-.625 4.323-3.497 1.703-1.219 3.093-2.247 3.093-2.287 0-.04-.312-.181-.695-.323-2.176-.806-4.968-.755-7.094.131-3.91 1.633-6.409 5.805-5.925 9.916.06.584.191 1.29.272 1.572.08.282.141.554.12.585-.02.04-2.115 2.065-4.665 4.504C.301 53.94 1.128 53.145.825 53.74c-.332.685-.423 1.854-.211 2.52zm3.204-1.905c.383-1.522 2.358-2.127 3.487-1.058.897.856.967 2.065.161 3.002-.655.776-1.894.938-2.74.383-.454-.302-.676-.594-.878-1.159-.16-.463-.17-.624-.03-1.168z" fill="#FF441B"/><path d="M3.123 33.485c.181.03 1.461.182 2.842.353 1.38.161 2.509.302 2.519.323.01.02.1.393.201.836.262 1.118.796 2.71 1.34 3.94l.454 1.048.494-.433c.272-.232 1.642-1.471 3.063-2.741 1.975-1.794 2.56-2.368 2.53-2.52-.02-.11-.162-.705-.303-1.31-.987-4.252-.141-8.887 2.288-12.495 2.378-3.527 5.935-5.905 10.207-6.812.948-.201 1.38-.242 3.165-.231 1.753 0 2.227.03 3.083.221 5.12 1.109 9.19 4.313 11.387 8.938 2.932 6.188 1.532 13.655-3.456 18.39-2.207 2.107-4.878 3.497-7.9 4.132-1.34.282-3.628.373-4.989.202-.866-.101-2.902-.565-3.375-.746-.121-.05-.746.685-2.57 3.074-1.32 1.723-2.409 3.174-2.409 3.234 0 .222 2.772 1.26 4.545 1.693l.917.222.272 2.338c.151 1.28.313 2.549.343 2.831l.07.504 3.98.03c2.177.01 4.001-.01 4.042-.05.04-.05.221-1.33.403-2.862l.332-2.781 1.22-.313c2.136-.534 4.504-1.521 6.358-2.66l.907-.554 2.217 1.743c1.209.957 2.227 1.743 2.257 1.754.03 0 1.33-1.28 2.892-2.842l2.852-2.852-1.774-2.237-1.763-2.237.574-.937a25.046 25.046 0 001.885-3.92c.423-1.119.977-3.043.977-3.376 0-.262-.161-.231 2.922-.594 1.19-.141 2.318-.272 2.5-.303l.322-.06v-8.041l-.333-.06a120.9 120.9 0 00-2.831-.354c-1.38-.16-2.52-.312-2.53-.322-.01-.02-.07-.312-.14-.655-.384-2.025-1.542-4.827-2.903-7.054l-.443-.735 1.763-2.237 1.764-2.248-2.842-2.851c-1.562-1.562-2.862-2.842-2.892-2.842-.03.01-1.048.786-2.257 1.743l-2.217 1.744-.907-.555c-1.895-1.138-4.232-2.116-6.358-2.65l-1.23-.312-.07-.615c-.03-.343-.182-1.622-.323-2.862L35.923.282l-4.04.02-4.042.03-.07.504c-.03.273-.192 1.552-.343 2.842l-.272 2.338-.564.12c-2.247.464-5.25 1.704-7.356 3.044l-.544.343-2.127-1.663a354.185 354.185 0 00-2.257-1.763c-.1-.081-.816.574-2.993 2.75L8.464 11.7l.564.736c.312.403 1.108 1.41 1.763 2.247l1.19 1.522-.494.826a26.904 26.904 0 00-1.844 3.748c-.414 1.059-.958 2.862-1.058 3.507-.071.434.201.363-2.963.736-1.19.14-2.318.282-2.5.312l-.322.05v8.042l.323.06z" fill="#FF441B"/></svg>