<svg width="75" height="60" fill="none" xmlns="http://www.w3.org/2000/svg"><path d="M45.589 2.275c-9.265.58-17.565 5.666-22.301 13.665-1.925 3.256-3.112 6.754-3.649 10.732-.157 1.21-.186 5.173-.036 6.368.687 5.552 2.683 10.31 6.125 14.56.858 1.058 3.026 3.204 4.092 4.056 4.164 3.32 8.807 5.28 14.159 5.974 1.395.179 5.151.179 6.51 0 4.179-.558 7.541-1.71 11.019-3.778 2.99-1.781 5.788-4.3 7.934-7.14a27.825 27.825 0 005.48-14.209c.115-1.252.1-4.035-.028-5.259-.365-3.398-1.217-6.381-2.69-9.408-3.9-7.999-11.512-13.715-20.24-15.203-1.947-.33-4.508-.472-6.375-.358zm-8.357 7.162c2.018.708 3.678 1.302 3.692 1.309.021.021-2.554 7.355-2.597 7.398-.029.036-1.975-.63-2.06-.701-.03-.029.2-.752.522-1.61.314-.859.558-1.574.536-1.595-.05-.05-.594.293-1.36.865a19.087 19.087 0 00-7.504 12.7c-.065.443-.115.9-.115 1.015v.215h.873c.744 0 .916.021 1.188.15.966.473.958 1.918-.015 2.361-.236.108-.472.136-1.166.136h-.88v.23c0 .421.272 2.088.465 2.89a19.098 19.098 0 002.934 6.432c1.38 1.974 3.312 3.82 5.416 5.158.88.558 2.604 1.417 3.591 1.782 1.288.472 3.12.887 4.736 1.073l.365.035.036-.922c.029-.823.05-.952.215-1.231a1.315 1.315 0 011.853-.43c.493.308.594.58.622 1.675l.029.908.372-.035c2.075-.236 3.735-.644 5.387-1.331a19.251 19.251 0 009.967-9.401c.93-1.932 1.595-4.293 1.76-6.26l.05-.573h-.88c-.759 0-.93-.021-1.202-.15-.465-.229-.694-.615-.694-1.173 0-.508.171-.823.593-1.116.23-.158.337-.172 1.21-.194l.951-.028v-.258c0-.415-.264-2.024-.472-2.862a19.13 19.13 0 00-4.207-8.099c-.458-.515-.644-.93-.594-1.33.1-.895 1.124-1.467 1.918-1.08.293.15 1.137 1.08 1.982 2.217 3.799 5.08 5.136 11.74 3.584 17.887-.436 1.724-.916 2.99-1.767 4.664-1.038 2.032-2.297 3.756-3.985 5.445-3.349 3.363-7.484 5.452-12.235 6.196-1.373.215-4.7.236-5.974.036-2.876-.451-5.222-1.224-7.476-2.462-7.877-4.32-12.313-12.906-11.226-21.735.487-3.992 2.161-7.906 4.708-11.054 1.424-1.753 3.348-3.477 5.173-4.622.343-.214.65-.415.68-.443.035-.036-.737-.322-1.703-.651-1.045-.358-1.739-.63-1.724-.68.014-.043.178-.522.371-1.066.187-.537.351-.98.365-.98.015 0 1.675.58 3.692 1.295zm20.684 9.608c.651.28.944 1.052.658 1.746-.078.186-1.416 1.574-4.371 4.529l-4.257 4.257.086.343c.136.551.05 1.195-.25 1.796-.423.851-1.131 1.374-2.118 1.553-1.353.25-2.805-.759-3.184-2.204-.15-.58-.13-.987.071-1.567l.172-.5-2.64-2.648c-1.782-1.781-2.676-2.733-2.755-2.912-.271-.672-.014-1.416.623-1.745.243-.13.851-.13 1.152 0 .143.057 1.338 1.216 3.012 2.918l2.776 2.827.587.114.579.122 4.293-4.293c2.36-2.354 4.371-4.321 4.471-4.357.265-.1.83-.093 1.095.021zm-52.858-.894c-.98.444-1.08 1.696-.193 2.304l.258.171 4.6.022c4.4.014 4.622.014 4.915-.122.45-.193.709-.572.744-1.073.036-.53-.15-.93-.572-1.202l-.3-.2-4.58-.014c-4.335-.022-4.6-.015-4.872.114zM.944 28.761c-.58.165-.944.659-.944 1.274 0 .522.343 1.03.823 1.209.136.057 2.654.079 7.963.079 8.363 0 7.934.014 8.356-.35.594-.523.501-1.61-.179-2.061l-.307-.2-7.727-.015c-5.008-.007-7.82.014-7.985.064zm4.043 10.761c-.322.164-.473.322-.616.636a1.287 1.287 0 00.408 1.582l.265.207 4.658.021c2.56.008 4.729 0 4.815-.021.214-.05.644-.436.78-.687.25-.493.05-1.316-.416-1.652l-.236-.165-4.722-.021c-4.178-.015-4.743 0-4.936.1z" fill="#FF441B"/></svg>