<svg width="75" height="58" fill="none" xmlns="http://www.w3.org/2000/svg"><path d="M11.171.72c-.323.452-.904 1.55-1.291 2.454-.452.904-2.842 5.94-5.295 11.17C2.066 19.64 0 24.419 0 25.065c0 .84 1.098 1.679 3.293 2.583 3.68 1.614 4.843 1.42 5.683-.71.322-.84 2.776-6.07 5.488-11.688 2.712-5.553 4.908-10.72 4.908-11.365 0-.775-.969-1.679-2.906-2.583-3.358-1.55-4.456-1.679-5.295-.58zm47.138.71c-1.55.71-2.777 1.744-2.777 2.131 0 .452 2.067 5.101 4.585 10.396 6.91 14.53 7.167 15.046 8.007 15.046 1.485 0 6.78-2.648 6.845-3.423.193-1.678-.388-3.1-5.037-12.72-2.648-5.49-5.102-10.655-5.424-11.494-.71-1.808-2.583-1.808-6.2.064zM34.417 5.95c-1.098.452-2.26.97-2.518 1.227-.259.323-2.777.517-5.554.517-4.843 0-5.1.065-5.682 1.679-.387.904-.646 1.679-.646 1.743 0 .065 1.292.065 2.906-.064 3.1-.259 3.422.129 2.002 2.13-.775 1.163-1.42 4.585-1.873 9.686-.129 1.873-.064 1.938 2.97 2.131 2.648.194 3.294-.064 4.973-1.743 1.097-1.033 2.13-2.841 2.389-3.939.71-3.81 5.23-4.972 7.877-2.066.582.645 3.23 2.97 5.877 5.295 2.647 2.324 5.682 5.036 6.78 6.005 1.033.968 3.164 2.712 4.714 3.874 2.195 1.679 2.712 2.39 2.582 3.939-.322 3.552-1.808 3.487-7.36-.258-2.842-1.873-5.231-3.616-5.425-3.81-.194-.194-1.55-1.227-3.1-2.26-1.807-1.227-2.97-1.679-3.422-1.227-1.097 1.098-.064 2.325 3.875 4.908 2.066 1.356 4.52 3.035 5.295 3.745.839.775 2.389 1.808 3.357 2.389 1.938 1.162 2.131 3.1.388 4.197-.775.517-1.808.13-4.198-1.485-1.743-1.227-3.293-2.39-3.486-2.583-.969-1.227-6.587-4.52-7.684-4.52-2.325 0-1.486 1.098 3.68 4.843 8.072 5.876 8.072 5.876 6.264 7.684-1.292 1.227-2.067.904-7.943-3.293-2.647-1.873-5.036-3.422-5.36-3.422-1.29 0-.451 2.518 1.163 3.616 3.422 2.195 5.037 4.068 4.262 4.843-1.033 1.033-3.81.451-3.552-.775.194-1.356-2.195-3.81-3.745-3.81-.775 0-1.291-.452-1.291-1.162-.065-1.938-1.68-3.358-3.875-3.358-1.162 0-2.001-.194-1.743-.388.904-.904-1.55-4.197-3.422-4.584-1.421-.259-1.938-.71-1.938-1.744 0-2.518-2.582-4.455-4.972-3.874-.904.258-1.808-.258-3.034-1.744-1.421-1.678-1.873-1.937-2.39-1.162-.84 1.356-.71 2.196.646 3.875 1.227 1.55 1.227 1.614-.323 3.486-1.743 2.196-1.872 2.842-.775 5.166.517 1.227 1.42 1.744 3.229 2.002 1.356.258 2.454.775 2.454 1.227 0 1.356 2.905 3.551 4.713 3.551 1.163 0 1.744.323 1.744 1.034 0 1.614 1.743 2.905 3.939 2.97 1.162.064 2.647.71 3.551 1.614 1.744 1.743 2.97 1.873 4.456.388.904-.904 1.162-.904 1.614-.13.904 1.421 5.876 1.033 6.974-.58.71-1.098 1.162-1.228 2.389-.646 2.196.968 4.778.129 6.005-2.067.71-1.227 1.615-1.937 2.583-1.937 1.614 0 4.004-2.13 4.004-3.616 0-.517 1.033-1.42 2.26-1.873 1.227-.516 2.518-1.55 2.905-2.195.904-1.679.84-4.778-.129-5.747-.58-.581-.58-1.227 0-2.906.84-2.389 1.292-1.098-5.36-15.045-3.615-7.62-3.809-7.878-6.069-8.265-1.291-.194-3.616-.71-5.23-1.098C42.81 5.24 36.742 5.046 34.417 5.95z" fill="#FF441B"/></svg>