<svg width="49" height="58" fill="none" xmlns="http://www.w3.org/2000/svg"><path d="M23.31.166c-1.065.33-1.689.601-3.785 1.644-2.301 1.145-2.789 1.428-5.962 3.411-5.587 3.502-8.104 4.658-10.756 4.93-1.224.125-1.915.442-2.357 1.088-.476.68-.533 1.258-.363 3.706 1.417 19.88 8.444 33.299 21.75 41.47 1.688 1.032 1.858 1.11 2.55 1.11.691 0 .861-.078 2.55-1.11C38.35 49.4 45.127 38.542 47.734 23.072c.646-3.82 1.201-9.815 1.008-10.847-.237-1.28-1.053-1.892-2.72-2.074-2.708-.272-5.281-1.45-10.812-4.93-3.026-1.904-4.295-2.618-6.687-3.763C25.497.008 24.568-.219 23.31.166zm11.753 16.74c1.813 1.224 1.96 1.383 1.96 2.12v.589l-5.995 8.84c-3.298 4.862-6.131 8.988-6.29 9.158-.397.43-1.054.76-1.507.76-.873-.012-1.236-.318-5.792-4.852-2.425-2.414-4.477-4.522-4.567-4.692-.216-.408-.204-.997.022-1.337.284-.43 1.859-2.018 2.358-2.392.34-.249.566-.328.963-.328h.51l2.935 2.913 2.925 2.924.226-.273c.114-.147 2.233-3.252 4.704-6.913 2.47-3.65 4.601-6.766 4.737-6.913.295-.33.578-.454 1.11-.454.34-.011.658.147 1.7.85z" fill="#FF441B"/></svg>