<svg width="163" height="49" fill="none" xmlns="http://www.w3.org/2000/svg"><path d="M27.73 6.98c-3.893.161-6.776.407-7.796.662-1.276.312-2.335 1.02-2.854 1.9-.274.482-1.352 3.808-1.352 4.195 0 .605.265.643 2.646.416 4.225-.397 9.243-.756 12.72-.898 6.908-.283 10.462.747 11.01 3.185.16.7-.066 1.871-.454 2.429-.5.7-.453.69-6.596 1.654-3.979.623-5.66.869-9.072 1.323-3.383.453-4.962.737-7.012 1.238-6.067 1.502-9.99 3.988-11.737 7.437-.908 1.776-1.267 4.035-.917 5.708.198.926.718 1.87 1.446 2.646 1.975 2.088 5.405 3.27 10.943 3.77 1.89.17 6.785.218 10.017.104 7.39-.274 13.183-.992 14.875-1.852.633-.312 1.294-.916 1.55-1.417.104-.208.756-2.155 1.436-4.338 1.285-4.064 1.37-4.243 1.37-2.939 0 1.143.378 2.74.945 3.988.605 1.332 1.956 2.892 3.298 3.808 1.38.936 3.573 1.796 5.633 2.221 2.353.482 3.052.539 7.513.586 8.968.095 13.183-.425 14.411-1.776.53-.596.718-1.087 1.077-2.864l.35-1.682.34.557c1.522 2.458 4.688 4.3 8.855 5.132 2.835.567 3.638.614 9.932.605 6.927-.01 10.509-.17 12.446-.558.709-.142 1.455-.463 1.994-.87.312-.236.869-1.096.869-1.35 0-.076.256-.974.567-1.985.624-2.041.681-2.391.36-2.561-.227-.123-1.796-.085-6.219.151-5.424.293-9.214.369-11.642.255-4.517-.227-6.077-.642-7.41-1.956-.642-.643-1.02-1.342-1.228-2.296-.141-.71-.18-1.626-.047-1.626.33 0 18.881-2.419 19.997-2.599 6.397-1.086 10.867-3.232 13.542-6.52.293-.36.302-.369.217-.095-.435 1.286-5.963 20.8-5.963 21.027 0 .397.142.633.472.803.237.123.936.142 4.659.142h4.385l.416-.217c.265-.142.491-.35.614-.596.114-.198 1.701-5.604 3.535-11.992 2.022-7.06 3.449-11.87 3.628-12.238.586-1.219 1.938-2.296 3.554-2.826 1.625-.529 1.521-.52 8.477-.529 6.322-.01 6.454-.01 6.709-.198.435-.331.577-.605 1.248-2.429.831-2.24.869-2.57.378-3.317-.851-1.285-2.476-1.521-9.658-1.446-4.527.047-5.359.114-7.787.586-3.213.624-6.03 1.758-8.25 3.336-1.21.85-2.92 2.58-3.686 3.714l-.614.898-.01-1.04c-.009-1.124-.198-1.87-.652-2.665-1.587-2.73-5.66-4.29-12.446-4.772-2.173-.151-7.815-.066-9.573.151-6.955.832-12.219 3.128-16.112 7.05-2.59 2.608-4.432 5.708-5.765 9.724-.916 2.76-1.313 4.914-1.323 7.154 0 1.436.114 2.4.416 3.44.142.472.18.746.114.746-.057 0-1.588.104-3.412.237-1.814.122-4.48.283-5.925.35-6.086.254-10.14-.473-11.832-2.136-.954-.936-1.238-1.91-1.162-4.026.056-1.654.283-2.873.926-5.009 1.918-6.407 5.935-9.696 12.985-10.631 2.39-.322 6.312-.284 11.51.104l2.06.16.227-.217c.397-.378.415-.671.17-2.608-.123-.983-.284-1.985-.369-2.23-.293-.898-1.276-1.683-2.551-2.013-1.418-.369-9.687-.435-12.37-.104-3.96.5-6.937 1.323-9.829 2.74-3.629 1.786-6.237 4.017-8.562 7.352l-.481.69.056-.378c.369-2.381-.019-4.498-1.105-6.02-1.654-2.315-4.574-3.657-9.45-4.347-1.324-.18-1.881-.198-7.202-.217-3.165-.01-6.086 0-6.473.01zm83.161 6.427c3.554.444 5.207 1.691 4.81 3.62-.463 2.248-2.948 3.798-7.645 4.771-1.379.284-16.528 2.457-16.613 2.382-.104-.104.945-3.072 1.484-4.177 1.908-3.95 4.12-5.585 8.561-6.35 2.769-.483 6.663-.587 9.403-.246zM39.448 26.268c-.104.303-.822 2.59-1.606 5.075-.775 2.485-1.427 4.536-1.446 4.555-.066.076-2.523.321-4.083.425-2.39.142-8.051.142-9.45 0-3.553-.368-5.604-1.2-6.2-2.514-.34-.737-.16-1.918.436-2.948.727-1.238 2.419-2.24 4.488-2.674.454-.095 17.474-2.429 17.88-2.448.142-.01.142.038-.019.53z" fill="#FF441B"/></svg>