<svg width="163" height="64" fill="none" xmlns="http://www.w3.org/2000/svg"><path d="M33.882 7.21c-2.877 1.298-5.697 4.457-6.43 7.221-1.016 3.498-.903 3.723 1.466 3.385 4.118-.677 8.067-5.36 8.067-9.534 0-2.425-.057-2.482-3.103-1.072zM16.564 19.113C9.343 20.411 4.886 28.76 6.522 37.898c.903 5.303 2.37 8.857 5.416 13.483 2.482 3.723 5.302 6.093 7.277 6.093.564 0 2.764-.564 4.851-1.241l3.836-1.241 4.175 1.353c5.19 1.58 6.657 1.298 9.76-2.03 3.61-3.837 7.05-10.944 5.358-10.944-1.184 0-4.23-3.216-5.19-5.529-1.974-4.513-1.071-8.8 2.652-12.58l1.974-2.03-2.087-1.75c-1.297-1.071-3.385-2.03-5.19-2.425-2.708-.62-3.498-.564-7.22.508-4.852 1.466-5.642 1.523-8.18.45-2.708-1.071-4.965-1.353-7.39-.902zm113.783.17c-.169.394-.226 7.164-.169 15.062l.169 14.385 1.862.17 1.805.168V18.55h-1.692c-.959 0-1.862.339-1.975.734zM61.693 34.627l-4.908 14.385h1.918c1.862 0 1.918-.056 3.385-4.513l1.523-4.57 5.134.17 5.133.169 1.467 4.231c1.41 4.118 1.523 4.23 3.441 4.4l2.031.17-3.892-11.452c-2.144-6.318-4.344-12.75-4.852-14.273-.902-2.707-1.072-2.82-3.272-2.99l-2.256-.169-4.852 14.442zm10.831 1.523c0 .226-1.805.451-4.005.451-2.99 0-3.949-.169-3.78-.733.17-.339.96-2.82 1.806-5.472.846-2.652 1.692-5.19 1.861-5.641.226-.734 4.118 9.985 4.118 11.395zm18.616-7.672c-1.071.451-2.369 1.24-2.933 1.749-.902.79-1.015.733-1.354-.62-.282-1.186-.677-1.468-2.03-1.468-1.636 0-1.693.113-1.354 1.75.169.958.338 7.446.338 14.384V56.91h3.385V46.078l1.749 1.467c1.41 1.241 2.312 1.467 5.02 1.467 2.934 0 3.61-.226 5.36-1.749 2.594-2.313 3.666-4.908 3.666-8.97 0-4.456-1.749-7.784-5.077-9.477-2.877-1.466-4.062-1.523-6.77-.338zm5.811 3.836c1.241 1.128 2.652 4.456 2.652 6.262 0 1.805-1.41 5.133-2.652 6.261-2.538 2.37-6.995 1.58-8.8-1.466-1.185-1.975-1.241-6.826-.113-9.026 1.862-3.554 6.205-4.57 8.913-2.031zm16.867-3.554c-1.354.677-2.651 1.636-2.82 2.144-.282.62-.452.395-.677-.79-.226-1.354-.621-1.749-1.862-1.862l-1.523-.169V56.91h3.949V46.699l1.467 1.128c2.143 1.693 7.108 1.636 9.646-.112 2.99-1.975 4.287-5.303 4.005-10.211-.169-3.441-.451-4.457-1.805-6.205-2.651-3.498-6.6-4.457-10.38-2.54zm6.262 3.385c1.862 1.41 2.877 4.964 2.369 8.292-.789 5.472-6.318 7.729-9.928 4.118-1.523-1.523-1.636-1.974-1.636-5.867 0-4.005.113-4.343 1.749-5.98 2.087-2.143 5.19-2.369 7.446-.563zm23.524-3.329c-4.344 2.2-6.262 6.713-5.359 12.58.395 2.934 2.708 5.98 5.359 7.052 1.974.79 9.816.564 10.718-.339.339-.338.452-1.015.282-1.523-.338-.733-1.015-.846-4.174-.564-5.472.451-7.729-.846-8.744-5.077l-.338-1.523h14.836l-.338-3.216c-.734-6.882-6.488-10.38-12.242-7.39zm7.221 2.877c.395.452.959 1.75 1.241 2.877l.451 2.031h-5.303c-4.4 0-5.302-.169-5.302-.846 0-1.523 1.692-4.287 2.99-4.795 1.579-.677 4.907-.282 5.923.733z" fill="#FF441B"/></svg>