<svg width="149" height="54" fill="none" xmlns="http://www.w3.org/2000/svg"><path d="M18.936 8.047c-.399 1.062-2.126 6.043-3.786 11.157a393.999 393.999 0 01-3.72 11.29c-.331 1.063-1.128 3.454-1.726 5.314-.598 1.793-1.594 4.98-2.258 7.04-.73 1.992-1.262 3.852-1.262 4.117 0 .266 1.594.465 3.52.465h3.52l1.527-4.45a186.62 186.62 0 012.325-6.84c.531-1.262 1.594-4.583 2.39-7.306.798-2.723 1.86-6.043 2.325-7.305.465-1.262 1.063-2.856 1.262-3.52.266-.864 1.13-1.13 3.72-1.13 1.793 0 3.32-.198 3.32-.53 0-.266-.598-2.126-1.395-4.118-.73-1.993-1.527-4.184-1.726-4.848-.266-.864-1.13-1.13-3.852-1.13-3.188 0-3.587.133-4.184 1.794zm26.432-1.328c-3.785 1.394-5.711 2.789-7.372 5.446-2.723 4.184-2.524 4.715 1.328 4.715 2.59 0 3.72-.332 5.114-1.66 1.794-1.66 1.86-1.66 14.611-1.66h12.885v1.66c0 1.527.199 1.66 3.32 1.66h3.321V6.254l-16.072.066c-8.9 0-16.603.2-17.135.399zM98.5 11.567v5.313h7.305V6.254h-7.306v5.313zm18.927-4.517c-3.254 1.196-5.579 3.122-6.973 5.845-.731 1.461-1.329 2.922-1.329 3.32 0 .333 1.462.665 3.321.665 2.59 0 3.587-.332 4.915-1.66 1.66-1.66 1.793-1.66 13.349-1.66h11.622V6.253l-11.423.066c-6.309 0-12.353.332-13.482.73z" fill="#FF441B"/><path d="M25.444 24.584c0 .93 5.114 17.201 6.708 21.385l.598 1.528 14.81-.2c14.146-.199 14.81-.265 16.869-1.726 3.586-2.59 4.981-5.048 5.047-9.298.133-4.716-1.394-8.103-4.648-10.56-2.391-1.86-2.458-1.86-14.944-2.059-6.84-.133-12.485 0-12.485.332.066.996 3.984 4.915 5.711 5.512.93.399 4.65.665 8.302.665 6.907 0 9.962.863 10.825 2.988.797 2.192.332 4.383-1.262 5.977-1.593 1.66-1.793 1.66-12.618 1.66-9.962 0-10.958-.132-10.958-1.195 0-.597-1.13-4.45-2.524-8.434l-2.458-7.306-3.52-.199c-2.855-.2-3.453 0-3.453.93zm46.49 6.442c0 9.364 1.262 12.552 5.977 14.877 2.723 1.394 3.786 1.527 15.408 1.527h12.486V23.521h-7.306V40.79h-7.637c-11.423 0-12.287-.73-12.287-10.959v-6.309h-6.641v7.505zm38.52-6.907c0 1.129 2.789 4.051 4.782 5.114 1.195.598 4.051.93 8.766.93 3.852 0 7.704.332 8.568.73 2.723 1.262 3.918 5.114 2.258 7.306-1.727 2.258-3.587 2.59-15.01 2.59h-11.357v6.707l13.482-.199 13.549-.199 2.391-1.793c3.188-2.457 4.449-5.247 4.449-9.896 0-4.649-1.66-7.77-5.18-10.028-2.258-1.395-3.32-1.528-14.544-1.727-8.369-.2-12.154 0-12.154.465z" fill="#FF441B"/></svg>