<svg width="34" height="33" fill="none" xmlns="http://www.w3.org/2000/svg"><rect x=".899" y=".286" width="32.695" height="32.219" rx="3.784" fill="url(#paint0_radial_53_425)"/><path d="M17.247 9.797h3.348c.788 0 1.182.194 1.477.29.394.195.69.292.985.583.295.291.492.582.59.97.1.292.198.68.296 1.456v6.6c0 .776-.197 1.164-.295 1.455-.197.388-.296.68-.591.97-.296.292-.591.486-.985.583-.295.097-.69.194-1.477.29h-6.697c-.788 0-1.181-.193-1.477-.29-.394-.195-.69-.291-.985-.583-.295-.29-.492-.582-.59-.97-.1-.291-.198-.68-.296-1.456v-6.599c0-.776.197-1.164.295-1.456.197-.388.296-.679.591-.97.296-.291.591-.485.985-.582.296-.097.69-.194 1.477-.291h3.349zm0-1.456h-3.349c-.886 0-1.477.194-1.97.388a4.306 4.306 0 00-1.477.97c-.492.486-.689.874-.984 1.456-.197.486-.296 1.068-.394 1.941v6.6c0 .873.197 1.455.394 1.94.197.485.492.97.984 1.456.493.485.887.68 1.478.97.492.194 1.083.291 1.97.388h6.696c.886 0 1.477-.194 1.97-.388a4.305 4.305 0 001.477-.97c.492-.485.689-.874.984-1.456.197-.485.296-1.067.394-1.94v-6.6a4.8 4.8 0 00-.394-1.94 4.234 4.234 0 00-.984-1.456c-.493-.486-.887-.68-1.478-.97-.492-.195-1.083-.292-1.97-.389h-3.348z" fill="#fff"/><path d="M17.247 12.223c-2.364 0-4.235 1.844-4.235 4.173 0 2.329 1.871 4.173 4.235 4.173 2.363 0 4.234-1.844 4.234-4.173 0-2.33-1.871-4.173-4.235-4.173zm0 6.89c-1.478 0-2.758-1.165-2.758-2.717a2.733 2.733 0 012.758-2.718c1.477 0 2.757 1.165 2.757 2.718 0 1.455-1.28 2.717-2.758 2.717zm4.333-6.017a.978.978 0 00.984-.97c0-.536-.44-.97-.984-.97a.978.978 0 00-.985.97c0 .536.44.97.985.97z" fill="#fff"/><defs><radialGradient id="paint0_radial_53_425" cx="0" cy="0" r="1" gradientUnits="userSpaceOnUse" gradientTransform="matrix(75.5027 0 0 74.403 34.252 .94)"><stop stop-color="#F9ED32"/><stop offset=".36" stop-color="#EE2A7B"/><stop offset=".44" stop-color="#D22A8A"/><stop offset=".6" stop-color="#8B2AB2"/><stop offset=".83" stop-color="#1B2AF0"/><stop offset=".88" stop-color="#002AFF"/></radialGradient></defs></svg>