<svg width="33" height="33" fill="none" xmlns="http://www.w3.org/2000/svg"><rect x=".303" y=".286" width="32.695" height="32.219" rx="3.784" fill="#07F"/><path d="M17.453 22.034c-6.143 0-9.648-4.233-9.794-11.277h3.078c.1 5.17 2.37 7.36 4.167 7.812v-7.812h2.898v4.46c1.774-.193 3.639-2.225 4.268-4.46h2.898a8.622 8.622 0 01-1.388 3.224 8.576 8.576 0 01-2.555 2.398 8.881 8.881 0 012.912 2.33 8.934 8.934 0 011.704 3.325h-3.19a5.579 5.579 0 00-1.72-2.72 5.536 5.536 0 00-2.93-1.31v4.03h-.348z" fill="#fff"/></svg>